/* XPM */
static char *GalaxyViewPic_xpm[] = {
/* width height ncolors chars_per_pixel */
"255 62 37 1",
/* colors */
"  c #000000",
". c #20FF00",
"X c #80FF80",
"o c #40FF40",
"O c #00FF00",
"+ c #A0C080",
"@ c #A0A080",
"# c #C0C0FF",
"$ c #60C040",
"% c #60A040",
"& c #608040",
"* c #606040",
"= c #20C000",
"- c #80C080",
"; c #20A000",
": c #80A080",
"> c #208000",
", c #808080",
"< c #206000",
"1 c #40C040",
"2 c #204000",
"3 c #40A040",
"4 c #202000",
"5 c #408040",
"6 c #A0FF80",
"7 c #FFFFFF",
"8 c #406040",
"9 c #00C000",
"0 c #404040",
"q c #00A000",
"w c #008000",
"e c #C0FFFF",
"r c #60FF40",
"t c #006000",
"y c #004000",
"u c #002000",
"i c None",
/* pixels */
"777777777777777777777777777777777777777777777777777777777777777777777777777777777777777777777777777777777777777777777777777777777777777777777777777777777777777777777777777777777777777777777777777777777777777777777777777777777777777777777777777777777777777",
"777777777777777777777777777777777777777777777777777777777777777777777777777777777777777777777777777777777777777777777777777777777777777777777777777777777777777777777777777777777777777777777777777777777777777777777777777777777777777777777777777777777777777",
"777777777777777777777777777777777777777777777777777777777777777777777777777777777777777777777777777777777777777777777777777777777777777777777777777777777777777777777777777777777777777777777777777777777777777777777777777777777777777777777777777777777777777",
"777777777777777777777777777777777777777777777777777777777777777777777777777777777777777777777777777777777777777777777777777777777777777777777777777777777777777777777777777777777777777777777777777777777777777777777777777777777777777777777777777777777777777",
"777777777777776rrrrorX6777777r+777777777777777777777777777777777eor#777777777777777777777777777777777777777777777777777777777777777777777777777777ee77eee767e7777777777777776777e6e7776roo777777777777777777777777777777777777777777777777777777777777777777777",
"7777777777eXo.9.Oqq9q9OOoe776Ow2+777777777777777777777777777776o...t%777777777777777777777777777777777777777777777777777777777777777777777777776.....OO.9O9ww+7777777777:wqOOO9OOO9677...Or77777777777777777777777777777777777777777777777777777777777777777777",
"777777777r..99wyu     utOO..OOwuy<+7777777777777777777777776...oo..ty57777777777777777777777777777777777777777777777777777777777777777777777777eq9=..OOO9.y  @77777777778 uyOO99ww-77+.OOOr77777777777777777777777777777777777777777777777777777777777777777777",
"7777777r...Otuuuuuu      wO.9Owytty<+7777777777777777777777Xtt>.o..tyyy:777777777777777777777777777777777777777777777777777777777777777777777777qwwqOOO.99uu 777777777772  u9OOwtw+77>q99;#77777777777777777777777777777777777777777777777777777777777777777777",
"777777r9999yuuuuyuu       t9OOwtttyyy<#777777777777777777777@uy.o..tyyyy877777777777777777777777777777777777777777777777777777777777777777777777=qqwqO.9.9u  7777777777# uuu9O9tt377+ty  &777777777777777777777777777777777777777777777777777777777777777777777",
"77777.OO.9yuuuuyuuu        w9Oqyyytyyyy577777777777777777777770...otyyyuy<#7777777777777777777777777777777777777777777777777777777777777777777771qqwtq9OOOt  7777777777@ uuyOOtyt%775wu u7777777777777777777777777777777777777777777777777777777777777777777777",
"7777o.OOOtyuyyuyuuuu        q.qyyytyuyyyt%777777777777777777777....tyyyyyyy#77777777777777777777777777777777777777777777777777777777777777777777$qwwtq9OO.= u77777777772  uqO=yyy#7#tu  &7777777777777777777777777777777777777777777777777777777777777777777777",
"777r...O9yyyyuuyuyuuu       uOqyyytyyyyttyu&7777777777777777777....wyyyyyuu2&7777777777777777777777777777777777777777777777777777777777777777777-wqwttOO...y 7777777777   u..tyy%77%w  u77777777777777777777777777777777777777777777777777777777777777777777777",
"776.....tyytyyuuytu          q9yyyttyuyttyuu4,77777777777777777....tytyyyyyyyy777777777777777777777777777777777777777777777777777777777777777777+ttttyq.....27777777777   wOqyute77ty u@77777777777777777777777777777777777777777777777777777777777777777777777",
"77oo...=tttyyyuyttu          ywyyyttyuyttyyuyy<-+67777777777777...otytytyyuuyy<ee666ee777777777677777777777777e777777777ee77777777777777e77e7777+tttttt...o.%777777777#  uqqtut>77<tu 276re777777777777777XrXX6e7777777677eeee677777ee777ee66e7777777667ee6e777",
"76.....;tttyuyyttyu             uyttyyytttqqwwq99O9;e7777777777..o.tttttyyyyw;.OqqOO99.X777777==OOOOOOOqt#76=.OO.99w77$....OOOOqw777777$q9OOOOq77twtttyw....o777777777*  twwyyt%77yy y;.OO67777777777776o..q.o..Oo77778q;...OOO9%7,yq9q.O....9o777@2qOOOOO9;777",
"7r.....wtttyyyttyyu uuu           uyyyut=9qwuu  yq9..5#77777777....tytttytywOOOy   uq.OOo77777#u w99O9qyu 77*tO.quu 0774q..OOOwu @77777# y9.9qq77>wtytty9O...677777777u u=9wyy<77&tt....OO677777777777oOOt  uy;.OO.67u  ut..OOO87,  uuq.OOO.u*7772  uuOOOu@7777",
"7.O....tttyyytttyyu uuu              uu9O.qyuu   w..9qu&777777e....ttyuuytwOO.wuu    .OOO>#77777  qO.99tu u779Oquu   #7, 9OOOOwyuu777777ut.9qqq+7>ytyytyqOO..o77777777  w9wyuu577<w==....O67777777777oO9u    uu9OO..t   uu>..OO+u   uyut9OOOe770u  yyyOO&777777",
"7OOO..=tttytyttyyyyuuuu u  uyu uu u   yOOOOyy    u9OOOyy2,77777..o.tyyuu uOO..tyu    =OO.=<#777770 qO.9qy  *6.qyyu    77uu9O9O9y  #77777*qOqqtt:7%ttyytytOOO..6777777#  99tyuy:7,tqwwq.o..6777777777rOOt      uyOO..9   uuy...Ow    uyyy9OOOX#u  uuyuw.X7777777",
"6OOOO.=tttyyyttyyyytytq99OO9.OO..=;y  yOOO9yyy    9OOOtyyu @777....ttuu   9Oq9ty     >OO.=yy@77777u 9OO99  y.qtyu     477 uOOO.t  077777:q9wtyt<7+ttyyuytqOOOO.777777* qOOuuy5775twwqwO...6777777776...       uuwOOO9t  uuyw.OO9   uuuyywOOOO    uuyuO.77777777",
"e9OOO.9ttyyuyttyytytyyyu qO9OOO.tyu    9..tyuu    q...wyu u 4@7..o.ttuu   y.9quy     yOO.=yy *777770yO.O9qy.=yyyu      ,7* q9OOOu  77777;9qtyyt<7+yyyuyytt99OOO677777uu99tyuy:7@ywwwww9O..67777777+q..;       uutOOO9w   uyyOOO.y   u yyOOOOOt   uuut.X77777777",
"7..OOO9yttyyyyyyyyttyuyuuuq9.OO9ttyu    uuuuyu  uu....wyy     8..o.ttuu    u  uy     wOO.=yu  277777*y9.OO..tyyy       u77uu99O.y  277769qwttyty7+yyyyyuytw.q.OO77777 t.=uuu2#7<twwqtw9O..6777777#2..oo.........OOOOO=   uuywOO.q   uuywO9OOOO   uuu=.e77777777",
"7q.OOOqyytyuyttu yyyyuyu u=.9OOwtttyu        ut;...ooowyyu     ..o.ttyu          ytq.OO..=yu   2777772qOO..tyyyu        27# tOO..   777.Oqwtyyyy#7ttyyyuuyt9O99Or777, O9yuuu87@yttwttw9O..6777777ut..o>                   uyyOO9.y   uu9OyOOO.y  uyy.r777777777",
"719....yytyyyttyuu  uuyuuu=OOOOwttttty     y;oo=tu=...wtyu    u..o.ttyyu      yq..9t tO.o=yuu   u7777789O...yyyu u       ,72u9..o>  ,7eOOwttyutt+7ytyuyuuytwO.9O.777,tO9yuuu#72ytttytwqO..6777772uw..o>                   uyyw9O.Ou  uw.w wOOOOu uu;.7777777777",
"7X99q99tttyyyttuyu      uuq9OOOwttttttuuut...;yu  OO..wttu     ..o.ttytyu   tqOO9tu  y..o=yuy     @7777qO..o.yy u         77 y....y  7oOOtwtyuyy878yyyyuuutt9OOO9$77299t yuy7#yyytyytqqOO.67777* u>o.o.                  uyuuw.9OOy  u9.u yOOO.y  y.r7777777777",
"77.....qytyyyttty         ;.OOOwttttyuuu=..=tyu   OOO.;ttuu    ....tyyu uu tO..wuy   y...=yuu      ,77rO9..o.9uu          27, 9...;  -..qtwtuuuy<7&yuyy uuytqOOOO.77y99u uu@78yyyyuytw9OO.6777@  u;.oo.                 uuuuwq.9O.q utOw  uq...= uw.67777777777",
"77o.O.OOytyyyytty         w9OOOwttyuuuy...=yyyu   =OO.wttuu    .o..tty  uu99q9wuu    w...=yyu       *r.q y.o.Ow            ,7uy...oy >.=wwwyuuuy27&uuuu uuyytOOOOOre9Ow yuu772utyuuyyt9O..677@   ut.o..t                uuyqwqwOO9.y qOu  uy....yu.o77777777777",
"777.OO.O9tyyyyyty   u     =.9OOwtyu u w...ttyy u  =OO.>ttuu    o..Otyuu  y999quyu    t...9yyu       tO9u  =..OOt            7@ q...=y..qwqtyyuuuy7@yuuuuuuuytq..OOOrOOy yu&7&yytyuuyytqOO.677u   uy.....             9t utqqwqqOO.9.yOq   uyq...=y.e77777777777",
"7776O9OOOqyyyyyyuu        qO9OOwyyu   ....ttyuu   9OO.tttyu    ...Otyu   t.OOwyy     yOOO9yy uu    yOOy   u..O.9u           27*y..o...=wwwtuuuuuu@#uyuu uuuyyw.......w u u772yytyuuyyyqOOO67u     y9....;          uw=uuwqqwww9qO.q.OOy   uytO.....777777777777",
"7777e.OOO.;yuuuuuuu       qO9OOqyyuu  ....wtyu    OOO.tttuu   u....Oqu   wOOO9yy     yOOO9ty uu   uOOqw    u.OOO9u           @7ut.o...qtqttyuu uy&7uyuu uuuuywq..o...y uu<7,uyyyuuyyyy;9OOX2     uwq.....w        uqOyytwwtwtwqq9O9qO9    uywO....X777777777777",
"777777oO..o=yuutuuu       O..OO9wyu   ....=ty   uqOOO.wytqy   u....9.tyu wOOOOty    w.OOO9yyyw   uOO9qtwu   tO99Oq            7# ..o..wwwyyuuuuuu87uuu u uuyuyw...o.w  uu#7uuuuuuuuytu999O3      ttwqOOOOO9u    ywO.wtytttytwtw9q9Oqqu   ut9.9....7777777777777",
"7777777X..ooo;yuuuuu    yqO.OOOO99tyu >ooo.=wyywO9OOO.=t9qyy  u....99wtyytO....wuyy..wOOOOww.tu u..qqwwwwu   wOq.Oqu          070t.oo=wqtyyuu u u<78uu uuuuyuttqO...u u 27@uuu  uuuyuu....q     ytw9w9OOOO99.=OOO..qwwyttttttwqww9.qq   ywwq.....r7777777777777",
"777777777Xo.o..qwtuyytyqOOOO9qwwwwttwtt.........quw.....Otyu y9.....wwtyywq.........wyOOOOO.9y t..o=twqwtyu y9O9OOO.y u        ,7 =o.wwqyyu uuu u278uuu u uuyutq9..;  uu&72uuuu uuuyt=99q99wu  twwtwtqwq9O9..OOO.;wtwwtttytywtqwqq..u tqtwwqO....e7777777777777",
"777777777776ro.OO.......999wtttwwtytttyw....o.=9qwt....=9wwqqqO===99999qttww.oo...=qwq9OO999qw999=====tttyt999qqqqqq;;u         7#..=wqwyyuuuuuu u@,uu  u u yywtw..y   u77uuyu  uut999qqw99999ytwwwtwwwww9O.OOO9tyywwwttttttttwqwq99utwqwtwwq9..r77777777777777",
"777777777777777X>yttttuyyyyyyyttttttyyttqqwtytttwtwq;ttwqwwttyyyyyyyyyyttyttttywwwqqwqqwttqqwwqwttttwwwtyyttwwwtttu             26..qwqyyuuuuuu uu,#u  u u uuytwwww  u 872uuuuuuuyywtytyyyttyytwwwwttwttwtttyyyyyyytttwttytwtwqwwttwyttqqtwtwq>+777777777777777",
"777777777777777777@82uuuuuyyyyytttyuytwwwwttwtyyytwwttwwtytttwtyyuuuuyuyyytyyyyyyttwwwqqwttwqwqqwttttttyyuttyttywtyy             ..=qqwyyyuuuuu  u8#uu     uuyywwwy  u :#uuuuu uuwttttttttttyyutwwwwtttttyyyuyytuyytwwttyttwwwqtytttyttwqwwt<#77777777777777777",
"7777777777777777777777#8uuuuuuyyyyyytttwyttwwwwtttuyytwwtyttttutttyyyyyyyyyyytyyyyyyttttttyttwtttttyyyyyyyyyytttyyyyy           wo.qwqtyuuuuu   uu87u    u uuuytwwu    7&u uuu uyyyttttyyttytyyytwwwwwtyyuyuuuuuuyyywwtwtwywwyyttttywtwtwt%77777777777777777777",
"77777777777777777777777777#8uuuyyyyyyyyyytttttytwwwtyyyttyyytyyytttttyyyyyyyyyytyyyyyuyyyyyywtyttttyyyuytyyyttytyyytttu        y..=qqwtuyu  u uu   72u      u yuty    ,7 uu  u uyyyyyyyyytyyttuytyytwwttyuyuutyyuyyytwtwtttyyywtyyytyyy<:7777777777777777777777",
"777777777777777777777777777777:&uuyyyyyyyyyyyyyttttytyyyuuyttyytyyyytwwtyyyyyuuuyyyytyuyytttttyuyyyyttyytytyuyyuuyyyyyu u9qwy y9OOwtqwyyy uuu u   u72u     uuuyuty  uu7,uuu  u yyyyytttyyyyyyttytyyyyyyuuuyyuyyyyyyytwtttyyuyttwtytty57777777777777777777777777",
"777777777777777777777777777777777@:2uuuuyyyuytytyytyytyyyyyuuytttyyyyttttyyyuuuuuuuytuuuuyyttyytyyytttyuyyyyuyuuuyyyyyyy9OO.q.OOO9wwqwtyy uu uu   u@*    u  uuuyy    87uuuu  uuuuuuuyyuuyuyyyytttyyuyuuyyyuyuyuuyuytyttyyuuuyyywwty:777777777777777777777777777",
"7777777777777777777777777777777777777@&8uuyyyyyyyyuytyyyyyyyyuuyyyyyyyyytyttyuuuuu yuuyuuyuuuuyttyyuyyuuuyuyyyuuuyuyyyyy9.Oq9.OO9qqwqtwyuuu uuu u u,@u        uyy    #@  u   uuuyyyyyyyuyuyyyyuyytyyu uyyuuuuuuyytytyyyyyuuyyyyy5+77777777777777777777777777777",
"77777777777777777777777777777777777777777@&uuuuuuuyyyyuyytyyyyuyuuuuuyyyyuytyyyuuuuyuuuuuuyuuuyyyyyuyuyyyyyu uuuuuuuuyuut.9...qqwqwqwtwtuuu u     u27     u  uuuu  u27uuu    uuuuuuuuuuuuyuyyyytyyuuuuuyyyyuuuyuyyyyyuyyuuuyyy877777777777777777777777777777777",
"77777777777777777777777777777777777777777777#@8uuuuuuuyyyyyyuyyyyyuuuuuuuuyuuuyyyuuuuuuuuuy uuyuuuuyyyuyyyyyuuuuuuuuuuyuuytwwwwwwwwwtwwyuu u       47          u    @, uu   uuuuuuuyyuu uuyyuuyyyuuuuu yuyyuuyuuuuuuyuuuyyy<@7777777777777777777777777777777777",
"7777777777777777777777777777777777777777777777777@82uuuuuuuyyyuyuuuuuuuuuuuuyuuuuyyuuuuuuuuuyyyuy uuuuuuuuyyuuuuu uuuuuuuuuyttttttwtwwtyyu u        7        uuu  u 7u     uuu  uuu uuuuuuuuyuuu uuuuuuuuyuuuuyuyyyuuyuyu8#777777777777777777777777777777777777",
"7777777777777777777777777777777777777777777777777777#@8uuuuuuyuuyyuuuuuyyyuuyyyyuuyuyuuuuuuu uuuuuyuuuuyuuuuyyu uuuuu u uuuuuyyyywttwwytyuuuu       #2         u   87      uuuu uuuuu uuuuuuuu  uuuuuuyuyuuuyuuuuyyyyuu@777777777777777777777777777777777777777",
"777777777777777777777777777777777777777777777777777777777,2uuuuuuuuyyuyyyyuyu uuuyuuuuy uu  uuuuuuu u   uyyuuuyyu   uuuuuu uuyytyttwwtyuyuu         @8         u   #& u    uuuuuu  uuuuuuuuuuuuu uuuuuuuuuuuuuuyuuyu8#77777777777777777777777777777777777777777",
"7777777777777777777777777777777777777777777777777777777777777&8uuuuuuuuuuuuuu uuuuuuyy uuuuy  uuuuuu uuuuuuuuuuuuuuuu   uuu uuyuyttwyyyyyyu         **       u   u27     uu uuuuu uuuuuuuuuu u uuuuuuuuuuuuuuuuyy<877777777777777777777777777777777777777777777",
"7777777777777777777777777777777777777777777777777777777777777777#&u u u uuuuuuuyuu uuuuuuuuuuu       u uu  uuu uuuuu      u uuuuuyyytytyyyy         2,            @*     uuuuu    uuuu  u  u uu uuuuuuuuuuuuuuu8#7777777777777777777777777777777777777777777777",
"77777777777777777777777777777777777777777777777777777777777777777777,8 u u  uu  uuuuyu uuuuu   uu     uuuuu uuuuu uuuuuuuuuuuuuuuuyyyuytytyu        u#        u  u7        uuuuu  u  uuuu    uuuuuuuuuuuuuuu2&#777777777777777777777777777777777777777777777777",
"77777777777777777777777777777777777777777777777777777777777777777777777@@8u   uuuuuuuuuuuuuuuuu uuuu      u u    uu  uuuu     uu uuuyutuyyuuy        ,          u8,     uu  u uu uuuuu   uu  uu uuu uuuuuuu,777777777777777777777777777777777777777777777777777",
"777777777777777777777777777777777777777777777777777777777777777777777777777#,2 u  uu  uu u u uu uuuuuuuuuuu   u uu u uu u          uuuyyyyyuy        #           #       u       u u    u   u u   u   uu&@77777777777777777777777777777777777777777777777777777",
"7777777777777777777777777777777777777777777777777777777777777777777777777777777#8u     uuuuuuuu  uuuu uuu   u u    u u  u u u  u   u uyuutyyyu       *2         2,              u    uu uu  u u u   uu&77777777777777777777777777777777777777777777777777777777",
"77777777777777777777777777777777777777777777777777777777777777777777777777777777777@8u   u uu  u          u     u      uu  u         uuuyyyyuu       872       878          u    u   uu    u  u u  8,7777777777777777777777777777777777777777777777777777777777",
"777777777777777777777777777777777777777777777777777777777777777777777777777777777777777@8u  u    u uu   uu  uu          u  u          uuuuyyyuu       77      277u                     u  u    u 87777777777777777777777777777777777777777777777777777777777777",
"7777777777777777777777777777777777777777777777777777777777777777777777777777777777777777777,8    uuu  uu    u        u                 uuuyyyuyu     u77*     ,7,            u      u u u     2,777777777777777777777777777777777777777777777777777777777777777",
"77777777777777777777777777777777777777777777777777777777777777777777777777777777777777777777777,8u      u    u  u                        uuuyyuu     ,777u    77#2                       uu 2@77777777777777777777777777777777777777777777777777777777777777777",
"77777777777777777777777777777777777777777777777777777777777777777777777777777777777777777777777777#@8                         u            uuyuuu   077770   *7778                u     u *#7777777777777777777777777777777777777777777777777777777777777777777",
"777777777777777777777777777777777777777777777777777777777777777777777777777777777777777777777777777777@*2       u                         u  uyuu   #77777   77770          ,          8#7777777777777777777777777777777777777777777777777777777777777777777777",
"7777777777777777777777777777777777777777777777777777777777777777777777777777777777777777777777777777777777#*u                                uuuuu 0777777@ 277772  u2    2#78  u    87777777777777777777777777777777777777777777777777777777777777777777777777",
"77777777777777777777777777777777777777777777777777777777777777777777777777777777777777777777777777777777777777@22    8@*u  2 8  2,*  8 u 272  uuuu @7777777u#777@u u7#8  @777, *7*2,777777777777777777777777777777777777777777777777777777777777777777777777777",
"7777777777777777777777777777777777777777777777777777777777777777777777777777777777777777777777777777777777777777777#7777777777777777777777777@uuuu8777777777777777777777777777777777777777777777777777777777777777777777777777777777777777777777777777777777777",
"77777777777777777777777777777777777777777777777777777777777777777777777777777777777777777777777777777777777777777777777777777777777777777777777uuu7777777777777777777777777777777777777777777777777777777777777777777777777777777777777777777777777777777777777",
"777777777777777777777777777777777777777777777777777777777777777777777777777777777777777777777777777777777777777777777777777777777777777777777777@#7777777777777777777777777777777777777777777777777777777777777777777777777777777777777777777777777777777777777"
};
